<svg xmlns="http://www.w3.org/2000/svg" width="333" height="333" viewBox="0 0 333 333"><g fill="none" fill-rule="evenodd"><rect width="333" height="333" fill="#91013B" rx="40"/><path fill="#FFC5F3" fill-rule="nonzero" d="M79,191.5 C71.94875,191.5 66.0192708,189.096146 61.2115625,184.288438 C56.4038542,179.480729 54,173.55125 54,166.5 C54,159.44875 56.4038542,153.519271 61.2115625,148.711563 C66.0192708,143.903854 71.94875,141.5 79,141.5 L79,111.692188 C79,106.139271 80.9771875,101.385729 84.9315625,97.4315625 C88.8857292,93.4771875 93.6392708,91.5 99.1921875,91.5 L141.5,91.5 C141.5,84.44875 143.903854,78.5192708 148.711563,73.7115625 C153.519271,68.9038542 159.44875,66.5 166.5,66.5 C173.55125,66.5 179.480729,68.9038542 184.288438,73.7115625 C189.096146,78.5192708 191.5,84.44875 191.5,91.5 L233.807813,91.5 C239.360729,91.5 244.114271,93.4771875 248.068437,97.4315625 C252.022812,101.385729 254,106.139271 254,111.692188 L254,141.5 C261.05125,141.5 266.980729,143.903854 271.788437,148.711563 C276.596146,153.519271 279,159.44875 279,166.5 C279,173.55125 276.596146,179.480729 271.788437,184.288438 C266.980729,189.096146 261.05125,191.5 254,191.5 L254,246.307813 C254,251.860729 252.022812,256.614271 248.068437,260.568438 C244.114271,264.522812 239.360729,266.5 233.807813,266.5 L99.1921875,266.5 C93.6392708,266.5 88.8857292,264.522812 84.9315625,260.568438 C80.9771875,256.614271 79,251.860729 79,246.307813 L79,191.5 Z M128.971875,172.75 C132.43625,172.75 135.390312,171.5375 137.834062,169.1125 C140.278021,166.6875 141.5,163.742708 141.5,160.278125 C141.5,156.81375 140.2875,153.859688 137.8625,151.415937 C135.4375,148.971979 132.492708,147.75 129.028125,147.75 C125.56375,147.75 122.609687,148.9625 120.165937,151.3875 C117.721979,153.812708 116.5,156.7575 116.5,160.221875 C116.5,163.68625 117.7125,166.640312 120.1375,169.084063 C122.5625,171.528021 125.507292,172.75 128.971875,172.75 L128.971875,172.75 Z M203.971563,172.75 C207.436146,172.75 210.390312,171.5375 212.834063,169.1125 C215.278021,166.6875 216.5,163.742708 216.5,160.278125 C216.5,156.81375 215.2875,153.859688 212.8625,151.415937 C210.437292,148.971979 207.492604,147.75 204.028437,147.75 C200.563854,147.75 197.609688,148.9625 195.165937,151.3875 C192.721979,153.812708 191.5,156.7575 191.5,160.221875 C191.5,163.68625 192.7125,166.640312 195.1375,169.084063 C197.562708,171.528021 200.507396,172.75 203.971563,172.75 Z M122.75,222.75 L210.25,222.75 L210.25,210.25 L122.75,210.25 L122.75,222.75 Z M99.1921875,254 L233.807812,254 C236.051354,254 237.894271,253.278854 239.336563,251.836563 C240.778854,250.394271 241.5,248.551354 241.5,246.307812 L241.5,111.692188 C241.5,109.448646 240.778854,107.605729 239.336563,106.163438 C237.894271,104.721146 236.051354,104 233.807812,104 L99.1921875,104 C96.9486458,104 95.1057292,104.721146 93.6634375,106.163438 C92.2211458,107.605729 91.5,109.448646 91.5,111.692188 L91.5,246.307812 C91.5,248.551354 92.2211458,250.394271 93.6634375,251.836563 C95.1057292,253.278854 96.9486458,254 99.1921875,254 Z"/><g stroke-linecap="round" stroke-linejoin="round" transform="translate(46.5 46.046)"><line x1="239.546" x2=".907" y1=".907" y2="240.454" stroke="#91013B" stroke-width="30"/><line x1="239.093" x2=".454" y1=".454" y2="240" stroke="#FFC5F3" stroke-width="14"/></g></g></svg>